<?xml version="1.0" standalone="no"?>
<!DOCTYPE svg PUBLIC "-//W3C//DTD SVG 20010904//EN"
 "http://www.w3.org/TR/2001/REC-SVG-20010904/DTD/svg10.dtd">
<svg version="1.0" xmlns="http://www.w3.org/2000/svg"
 width="300.000000pt" height="298.000000pt" viewBox="0 0 300.000000 298.000000"
 preserveAspectRatio="xMidYMid meet">
<metadata>
Created by potrace 1.10, written by Peter Selinger 2001-2011
</metadata>
<g transform="translate(0.000000,298.000000) scale(0.100000,-0.100000)"
fill="#000000" stroke="none">
<path d="M1316 2940 c-52 -46 -103 -139 -122 -223 -21 -93 -25 -105 -31 -90
-6 16 -128 106 -178 130 -104 51 -232 57 -266 12 -22 -30 -49 -123 -49 -173 0
-42 27 -171 42 -199 14 -28 6 -29 -45 -7 -143 63 -408 36 -445 -46 -33 -71 16
-209 111 -311 22 -24 38 -45 36 -46 -2 -2 -35 -8 -74 -14 -143 -22 -259 -86
-271 -149 -16 -88 98 -232 236 -299 41 -19 82 -35 92 -35 27 0 21 -24 -10 -38
-56 -25 -162 -113 -217 -179 -110 -133 -141 -248 -82 -299 15 -13 46 -29 70
-36 52 -15 252 -15 289 0 16 6 28 9 28 5 0 -3 -14 -33 -30 -67 -84 -170 -93
-357 -21 -396 56 -29 187 -2 308 65 l62 34 -7 -32 c-4 -18 -7 -77 -7 -132 0
-83 4 -108 23 -146 22 -44 54 -69 90 -69 9 1 45 15 79 33 62 32 124 85 195
165 38 42 65 56 54 26 -11 -29 33 -217 69 -291 92 -188 187 -161 289 80 22 52
56 185 56 219 0 15 5 28 10 28 6 0 10 -8 10 -17 0 -9 23 -59 51 -110 63 -113
173 -229 226 -239 71 -13 99 19 128 150 20 88 16 270 -6 338 -7 21 -10 41 -7
44 4 3 24 -14 46 -38 52 -56 182 -148 247 -176 174 -72 275 -37 275 96 0 63
-37 190 -76 260 -30 52 -33 64 -18 57 118 -50 280 -69 349 -41 45 19 59 48 51
110 -6 57 -71 196 -111 238 -14 15 -25 29 -25 31 0 3 19 7 43 11 78 12 166 47
187 73 85 109 -125 335 -369 398 l-46 11 75 40 c180 94 327 334 255 414 -47
52 -91 64 -227 65 -71 0 -128 2 -128 5 0 3 10 33 22 65 16 45 21 85 22 155 2
155 -36 210 -142 210 -108 0 -253 -65 -354 -159 -21 -19 -40 -32 -43 -29 -4 3
1 30 9 59 20 67 21 229 2 294 -21 68 -50 95 -101 95 -70 0 -183 -92 -253 -203
l-36 -58 -14 38 c-39 106 -50 129 -92 190 -56 82 -105 123 -157 130 -34 4 -45
1 -77 -27z m134 -106 c51 -56 102 -164 125 -268 14 -61 16 -108 13 -215 -7
-186 -4 -181 -108 -186 -47 -3 -100 -9 -118 -14 -30 -9 -33 -7 -47 19 -25 48
-64 210 -71 290 -11 130 23 277 87 374 40 60 63 60 119 0z m516 -79 c20 -50
18 -201 -6 -314 -23 -109 -124 -327 -150 -324 -8 1 -48 10 -88 19 -69 18 -73
20 -67 43 10 39 25 181 25 237 0 66 58 186 131 270 46 53 111 104 132 104 4 0
15 -16 23 -35z m-1022 -73 c120 -56 216 -153 216 -219 0 -42 45 -239 67 -294
8 -22 14 -42 11 -44 -2 -2 -35 -20 -73 -40 l-70 -35 -35 42 c-19 24 -69 74
-110 113 -132 124 -135 128 -166 222 -36 109 -40 222 -10 267 16 26 22 28 61
24 24 -3 73 -19 109 -36z m259 -162 c-4 -5 -26 15 -48 43 -22 29 -33 47 -25
40 11 -8 22 -8 45 1 l30 13 3 -45 c2 -25 0 -48 -5 -52z m427 79 c0 -7 12 -10
30 -7 36 5 37 -2 9 -62 -11 -25 -22 -53 -25 -64 -6 -32 -12 -29 -17 11 -17
113 -18 133 -8 133 6 0 11 -5 11 -11z m846 -90 c16 -17 18 -36 18 -112 -1 -77
-6 -103 -30 -161 -16 -38 -36 -72 -44 -76 -8 -4 -46 -22 -85 -40 -77 -35 -184
-104 -228 -145 l-28 -27 -36 35 c-19 20 -60 48 -91 64 -32 15 -59 29 -61 30
-2 1 31 54 73 117 115 172 223 264 366 313 83 29 121 29 146 2z m-425 -113
c26 16 -11 -43 -62 -99 -16 -17 -32 -40 -35 -49 -3 -10 -9 -18 -14 -18 -5 0
-12 -9 -15 -20 -3 -11 -11 -20 -16 -20 -5 0 -2 15 8 33 9 17 18 37 19 42 2 6
13 39 25 75 12 36 23 71 25 78 3 10 11 8 30 -7 15 -11 30 -18 35 -15z m-1278
-33 c3 -16 22 -47 41 -70 20 -22 36 -44 36 -48 0 -4 -22 9 -49 29 -27 20 -53
36 -57 36 -5 0 -17 7 -28 15 -18 13 -17 15 10 39 37 32 40 32 47 -1z m-163
-40 c114 -31 254 -130 364 -256 l51 -59 -30 -21 c-17 -12 -59 -46 -94 -76
l-63 -53 -87 40 c-47 23 -122 49 -166 59 -77 17 -82 20 -150 88 -112 111 -164
219 -128 264 32 39 187 46 303 14z m646 -88 c-2 -7 2 -21 9 -32 8 -10 15 -26
15 -35 0 -10 11 -25 26 -34 28 -19 23 -28 -20 -38 -27 -7 -28 -6 -22 20 7 27
-17 117 -38 143 -9 12 -7 12 12 2 13 -7 21 -19 18 -26z m378 -77 c5 -21 2 -28
-13 -33 -23 -7 -53 4 -48 19 2 6 13 16 24 21 11 6 18 17 15 25 -3 10 -1 12 5
5 6 -5 13 -22 17 -37z m886 -20 c0 -5 -5 -6 -10 -3 -6 4 -17 1 -25 -5 -8 -6
-23 -10 -34 -8 -19 3 -19 5 11 40 l31 38 13 -26 c8 -15 14 -31 14 -36z m-633
-92 l23 -26 -27 0 c-32 0 -22 -12 27 -30 44 -17 94 -63 125 -117 34 -57 34
-141 1 -203 -70 -132 -246 -164 -354 -66 -13 11 -28 29 -34 39 -8 16 -7 17 11
7 30 -15 26 -7 -14 33 -32 32 -35 40 -35 93 0 37 8 74 19 99 17 35 20 37 21
15 0 -14 7 -38 14 -55 9 -22 10 -36 3 -53 -12 -26 15 -123 40 -143 13 -11 19
2 6 14 -3 4 -8 24 -10 45 -2 20 -8 50 -13 66 -9 26 -8 28 13 21 52 -17 91 -17
121 -1 68 36 89 138 40 192 -15 16 -24 22 -21 13 27 -82 30 -99 17 -128 -17
-41 -52 -62 -100 -59 -45 2 -52 14 -17 27 33 13 77 68 77 96 0 28 -42 81 -71
90 -16 5 -18 10 -9 20 9 10 7 20 -5 39 -16 25 -16 26 1 26 11 0 36 -4 56 -9
29 -7 40 -5 50 6 11 14 13 13 18 -5 3 -11 15 -32 27 -46z m808 54 c126 -20
141 -44 93 -140 -52 -105 -180 -206 -323 -255 -41 -13 -267 -49 -271 -42 0 1
-9 31 -18 67 -10 36 -26 84 -37 108 l-18 43 36 32 c113 99 252 167 383 186 78
12 88 12 155 1z m-1046 -21 c82 -14 93 -23 45 -39 -54 -18 -117 -86 -143 -154
-55 -147 3 -305 136 -371 141 -70 311 -31 391 90 l31 48 13 -29 c7 -16 12 -72
12 -124 1 -81 -3 -104 -25 -154 -79 -179 -262 -328 -469 -382 -127 -33 -356
-17 -453 33 -16 8 -34 12 -40 10 -7 -2 6 -13 28 -25 22 -12 38 -22 35 -23 -17
-6 -50 -5 -50 1 0 4 -12 11 -27 14 -16 4 -36 9 -45 12 -16 5 -78 -43 -78 -61
0 -4 -11 -20 -25 -37 -14 -16 -25 -26 -25 -21 0 5 9 19 19 30 11 11 25 40 32
63 13 42 13 43 -22 71 -69 58 -72 61 -60 68 7 5 2 16 -15 32 -49 46 -94 141
-101 213 -3 37 -2 66 3 66 5 0 20 -12 33 -26 49 -52 98 -69 196 -69 81 0 95 3
144 30 260 144 192 529 -101 573 l-53 8 56 36 c163 106 368 149 558 117z
m-589 -36 c0 -7 3 -12 8 -12 40 7 41 -11 2 -34 -42 -25 -55 -53 -40 -82 7 -13
24 -26 38 -30 19 -5 22 -9 13 -14 -9 -6 4 -16 40 -33 186 -86 214 -308 53
-421 -79 -56 -214 -47 -279 19 -35 34 -50 69 -20 44 29 -24 15 3 -16 31 -47
42 -57 112 -27 192 14 37 28 34 28 -7 0 -19 5 -38 11 -41 6 -5 8 -22 4 -46 -6
-32 -1 -51 20 -94 14 -30 31 -55 37 -55 6 0 6 6 -2 15 -7 8 -14 32 -15 54 -2
21 -8 49 -15 61 -15 29 -11 32 31 20 47 -14 93 -3 128 31 54 51 59 126 12 185
-25 32 -28 16 -5 -28 39 -76 -22 -179 -101 -170 -21 3 -39 12 -45 23 -9 16 -5
21 22 33 54 23 78 52 78 94 0 45 -5 53 -53 85 l-38 26 28 25 c15 14 33 26 39
26 5 0 21 14 34 32 19 26 21 36 13 58 -8 21 -7 27 3 27 8 0 14 -6 14 -14z
m-640 -32 c0 -4 12 -13 26 -19 15 -7 22 -17 18 -24 -4 -6 -3 -8 4 -4 6 3 14 0
19 -7 4 -8 15 -17 23 -21 8 -3 -7 -3 -35 0 -27 4 -61 6 -74 6 -19 -2 -22 1
-15 16 4 9 7 29 7 44 0 18 4 25 13 21 8 -3 14 -8 14 -12z m1344 -47 c20 -20
20 -58 0 -78 -18 -19 -65 -21 -82 -4 -15 15 -16 53 -2 79 13 23 62 26 84 3z
m299 -26 c4 1 7 -3 7 -10 0 -9 3 -9 12 0 7 7 19 12 28 12 10 0 11 -3 4 -8 -7
-4 -16 -24 -22 -44 -8 -29 -7 -40 4 -49 8 -6 19 -30 25 -52 14 -52 52 -129 73
-146 18 -15 11 -37 -14 -44 -12 -3 -21 3 -29 19 -6 14 -22 29 -35 35 -20 10
-27 8 -47 -12 -13 -13 -23 -27 -21 -31 1 -5 -3 -8 -8 -8 -15 0 -12 12 15 66
34 67 34 137 -2 215 -15 32 -31 59 -35 59 -4 0 -8 5 -8 10 0 7 8 6 23 -2 12
-7 25 -11 30 -10z m-1523 -52 c87 -19 156 -43 208 -73 41 -25 42 -26 27 -49
-23 -36 -46 -134 -39 -171 6 -32 5 -33 -28 -33 -19 0 -76 -7 -126 -16 -82 -14
-97 -14 -151 0 -158 40 -328 176 -319 253 9 75 255 126 428 89z m440 -78 c13
-25 13 -31 0 -55 -21 -38 -81 -45 -104 -11 -21 30 -20 50 5 77 29 31 78 26 99
-11z m297 -81 c-3 -19 -5 -17 -12 11 -4 17 -12 32 -17 32 -5 0 -6 5 -3 11 11
16 37 -28 32 -54z m1286 -25 c-17 -10 -27 -59 -14 -66 6 -4 11 -11 11 -15 0
-7 -24 -5 -115 14 -11 2 -30 4 -43 4 -43 2 -12 19 63 36 41 9 75 21 75 26 0 5
8 9 18 9 11 0 13 -3 5 -8z m-1248 -88 c0 -36 -11 -46 -17 -16 -5 23 3 64 11
57 3 -4 6 -22 6 -41z m344 -24 c14 -11 22 -23 18 -26 -9 -9 -64 51 -72 78 -6
21 -5 21 12 -4 10 -15 29 -36 42 -48z m361 -2 c0 -13 -72 -60 -97 -64 -63 -11
-93 -12 -93 -4 0 5 9 7 20 5 11 -2 20 1 20 7 0 6 3 9 6 5 8 -8 81 19 113 43
31 23 31 23 31 8z m528 -13 c105 -25 201 -75 274 -144 78 -73 97 -112 67 -140
-52 -48 -270 -61 -414 -23 -44 11 -125 38 -180 60 l-100 40 5 34 c3 18 5 66 5
106 0 80 -3 76 75 86 58 7 201 -3 268 -19z m-1741 -61 c12 -17 23 -34 23 -38
0 -4 12 -18 27 -32 40 -37 38 -55 -4 -33 l-35 18 -28 -32 c-17 -19 -28 -26
-28 -17 4 60 -4 102 -21 119 -19 19 -19 20 7 46 19 19 28 23 31 13 2 -7 15
-27 28 -44z m503 44 c0 -28 -13 -57 -22 -52 -5 3 -9 0 -7 -7 3 -29 -1 -50 -11
-44 -5 3 -10 3 -10 -2 0 -14 -47 -63 -54 -56 -3 3 -6 2 -6 -4 0 -13 -88 -45
-94 -34 -3 4 17 15 44 24 58 21 111 80 132 145 12 40 28 57 28 30z m-884 -42
c28 -7 69 -12 90 -11 35 3 36 2 14 -7 -14 -5 -38 -17 -55 -25 -16 -8 -50 -24
-75 -35 -44 -19 -45 -19 -25 0 11 11 24 17 30 14 5 -3 -1 11 -13 32 -21 35
-25 46 -19 46 1 0 25 -6 53 -14z m306 -107 c-3 -55 1 -86 18 -131 12 -33 20
-61 18 -62 -1 -1 -32 -23 -67 -49 -96 -72 -177 -113 -266 -138 -123 -33 -292
-30 -329 7 -33 32 30 140 141 244 122 114 304 198 433 199 l55 1 -3 -71z m241
-42 c18 -8 51 -12 75 -10 27 2 41 -1 37 -7 -12 -20 -155 0 -155 21 0 12 5 11
43 -4z m1295 -62 c41 -19 80 -35 87 -35 8 0 17 -5 20 -11 9 -13 -43 -6 -71 10
-16 9 -68 31 -84 36 -3 0 -15 5 -28 9 -15 5 -29 3 -38 -5 -22 -18 -44 -20 -37
-3 3 8 10 14 16 14 6 0 7 3 4 6 -3 4 -2 15 4 26 10 18 12 18 32 4 12 -9 55
-32 95 -51z m685 -2 c-7 -19 -33 -42 -47 -43 -5 0 -2 8 7 18 10 10 17 24 17
30 0 7 7 12 15 12 10 0 12 -6 8 -17z m-513 -106 c58 -14 123 -29 145 -32 69
-11 184 -151 210 -256 9 -37 -16 -59 -69 -59 -52 0 -194 35 -261 65 -64 28
-199 120 -297 203 l-78 65 23 27 c13 15 29 41 36 57 l12 30 87 -37 c48 -21
134 -49 192 -63z m-1610 -20 c0 -5 -13 -6 -29 -2 -20 4 -30 2 -34 -8 -3 -8
-15 -17 -28 -20 -17 -5 -14 1 14 24 22 18 37 39 37 52 0 20 2 19 20 -8 11 -16
20 -34 20 -38z m1906 28 c-1 -5 -7 -19 -13 -29 -11 -21 -6 -56 9 -56 5 0 6 -4
3 -10 -3 -5 -2 -10 2 -10 5 0 14 -10 22 -22 8 -13 -14 3 -47 35 -34 32 -77 64
-97 72 -19 9 -35 19 -35 23 0 4 35 7 79 7 46 0 78 -4 77 -10z m-661 -23 c-6
-17 119 -143 139 -139 6 1 10 -4 9 -10 -2 -7 4 -13 12 -13 8 0 15 -4 15 -10 0
-5 8 -10 18 -10 9 0 29 -13 44 -29 16 -15 38 -32 50 -38 13 -6 48 -23 79 -39
l57 -28 -36 -28 -36 -29 -40 48 c-23 26 -56 61 -75 78 -19 16 -52 47 -75 68
-23 21 -60 50 -83 65 -24 15 -43 33 -43 41 0 8 -3 12 -6 8 -4 -3 -23 3 -44 13
-34 18 -39 18 -44 3 -4 -9 -9 -13 -13 -10 -8 9 49 73 65 73 7 1 10 -6 7 -14z
m-1130 -152 c30 -17 55 -34 55 -36 0 -8 -101 -157 -138 -203 -111 -137 -358
-270 -431 -232 -26 14 -28 69 -6 156 40 152 106 238 272 354 l117 82 38 -45
c21 -25 63 -59 93 -76z m1195 9 c198 -161 306 -304 336 -449 8 -40 12 -86 9
-102 -6 -25 -11 -28 -48 -28 -90 1 -232 82 -348 201 -99 101 -240 307 -218
320 40 22 140 101 151 119 7 11 14 20 16 20 1 0 47 -36 102 -81z m-2040 -51
c0 -6 -11 -1 -25 12 -14 13 -25 31 -25 39 1 11 8 8 25 -12 14 -15 25 -33 25
-39z m460 31 c-17 -17 -42 -46 -57 -65 -14 -19 -28 -34 -32 -34 -3 0 -15 14
-26 30 -11 17 -26 28 -32 25 -25 -9 -12 5 18 20 17 9 33 14 37 11 3 -3 11 -1
19 5 7 6 13 9 13 5 0 -3 17 3 37 14 53 28 59 25 23 -11z m1295 -19 c3 -5 1
-10 -6 -10 -19 0 0 -72 27 -98 13 -13 26 -34 30 -45 7 -23 73 -114 116 -162
l28 -30 -32 -7 c-18 -3 -38 -14 -45 -24 -11 -16 -13 -15 -21 7 -5 13 -15 48
-23 77 -7 28 -17 52 -23 52 -5 0 -6 3 -3 7 4 3 3 11 -2 17 -5 6 -14 29 -21 51
-7 22 -19 46 -27 53 -7 7 -13 21 -13 29 0 9 -3 13 -7 10 -3 -4 -12 2 -20 13
-8 11 -23 20 -34 20 -31 0 -18 21 21 35 46 17 48 17 55 5z m-617 -100 c6 0 12
-3 12 -7 0 -14 -52 -200 -73 -257 -22 -64 -116 -198 -174 -249 -54 -48 -126
-96 -145 -97 -24 0 -38 52 -38 149 0 108 28 211 70 260 52 61 131 174 156 223
l23 46 78 -34 c43 -18 84 -34 91 -34z m77 29 c5 -5 17 -9 27 -9 10 0 18 -5 18
-11 0 -5 -4 -8 -8 -5 -16 10 -50 -24 -62 -62 -14 -43 -37 -71 -26 -32 15 54
15 63 1 91 -8 15 -23 33 -32 38 -14 8 -7 9 27 5 25 -4 49 -10 55 -15z m500
-38 c39 -78 82 -192 106 -283 39 -146 28 -408 -18 -425 -38 -15 -183 181 -231
313 -33 87 -67 233 -77 329 l-7 60 67 13 c37 7 79 19 94 27 37 20 38 20 66
-34z m-237 1 c-18 -23 -26 -27 -40 -18 -9 5 -14 14 -12 18 3 4 -2 8 -11 8 -9
0 -13 5 -10 10 3 6 27 10 51 10 l46 0 -24 -28z m-55 -97 c13 -130 2 -338 -22
-430 -24 -90 -85 -226 -112 -251 -23 -21 -34 -13 -63 44 -54 106 -71 187 -71
332 0 129 2 141 39 262 l39 127 91 -2 91 -2 8 -80z m1317 75 c0 -15 -46 -60
-61 -60 -6 0 2 15 18 34 29 36 43 44 43 26z m-1880 -26 c0 -10 -83 -104 -92
-104 -8 0 33 51 64 78 9 9 15 19 12 24 -3 4 0 8 5 8 6 0 11 -3 11 -6z m669
-313 c12 -35 20 -65 17 -68 -2 -2 -13 1 -24 8 -15 10 -24 10 -34 1 -15 -12
-44 0 -35 15 3 5 7 63 8 129 1 65 5 123 8 129 3 5 12 -26 21 -70 9 -44 26
-109 39 -144z m-799 157 c-19 -74 -22 -84 -33 -106 l-10 -22 -23 21 c-13 12
-35 22 -50 22 -23 0 -25 1 -9 9 22 13 47 33 94 75 20 18 37 33 37 33 1 0 -2
-15 -6 -32z m381 -160 c-3 -75 -6 -81 -32 -67 -15 8 -24 7 -35 -2 -10 -8 -18
-9 -25 -2 -7 7 -2 20 15 41 14 16 26 35 26 41 0 6 5 11 10 11 6 0 10 6 10 13
0 15 21 39 29 32 2 -3 3 -33 2 -67z m-796 12 c30 -24 34 -30 18 -30 -19 0 -40
18 -57 48 -11 19 -2 15 39 -18z m2102 -80 c1 -11 -4 -20 -13 -20 -8 0 -14 -4
-14 -10 0 -5 -7 -10 -16 -10 -14 0 -14 3 -4 15 7 8 19 15 26 15 8 0 13 3 13 8
-2 10 0 22 4 22 1 0 3 -9 4 -20z m-573 -305 c-13 -20 -19 -22 -47 -14 -32 9
-71 39 -50 39 7 0 15 -4 18 -10 9 -15 51 -12 65 5 19 23 32 7 14 -20z m-614
-66 c0 -5 4 -8 9 -5 5 4 11 0 14 -6 3 -10 12 -9 36 4 22 12 31 13 31 5 0 -19
-34 -35 -61 -30 -25 5 -59 43 -39 43 5 0 10 -5 10 -11z"/>
<path d="M1378 2808 c-55 -84 -99 -212 -97 -282 1 -33 3 -40 6 -21 9 63 65
213 94 253 l17 23 25 -33 c14 -18 32 -48 41 -66 22 -42 37 -122 23 -122 -6 0
-8 -34 -4 -98 8 -112 16 -160 29 -168 9 -6 3 193 -8 243 -2 12 0 25 6 28 5 3
10 18 10 32 0 33 -74 184 -104 212 l-23 22 -15 -23z"/>
<path d="M1437 2340 c3 -41 9 -88 13 -105 8 -30 8 -30 9 8 1 44 16 41 27 -6 4
-17 9 -27 11 -20 4 11 -40 152 -58 183 -4 8 -6 -18 -2 -60z"/>
<path d="M1870 2683 c-58 -66 -150 -200 -150 -221 0 -13 17 5 75 82 17 22 56
73 88 114 31 42 57 77 57 79 0 14 -27 -6 -70 -54z"/>
<path d="M1782 2373 c-12 -21 -31 -53 -43 -70 -30 -47 -16 -41 19 8 26 35 31
38 40 23 8 -14 11 -7 13 29 2 26 2 47 -2 47 -3 0 -15 -17 -27 -37z"/>
<path d="M820 2672 c0 -4 21 -18 47 -32 68 -36 141 -87 188 -132 38 -36 65
-48 65 -29 0 19 -149 137 -213 169 -66 32 -87 38 -87 24z"/>
<path d="M1051 2439 c20 -24 46 -61 58 -81 26 -43 31 -46 31 -18 0 11 -23 46
-52 77 -62 70 -86 84 -37 22z"/>
<path d="M1030 2313 c6 -10 17 -36 25 -58 9 -24 13 -29 10 -12 -7 34 16 37 39
5 12 -18 14 -19 9 -4 -6 19 -72 85 -86 86 -4 0 -3 -8 3 -17z"/>
<path d="M2283 2363 c-217 -233 -246 -263 -260 -263 -11 0 -13 8 -8 33 l6 32
-26 -30 c-14 -16 -31 -38 -36 -48 -9 -17 -8 -17 11 -7 11 6 30 8 41 5 29 -10
76 24 156 112 39 43 86 94 104 114 50 52 133 149 142 165 24 42 -25 0 -130
-113z"/>
<path d="M2421 2407 c-19 -67 -101 -181 -189 -266 -42 -40 -63 -63 -47 -51
116 84 265 288 253 347 -2 9 -9 -5 -17 -30z"/>
<path d="M366 2276 c17 -8 56 -21 86 -30 31 -9 79 -32 108 -51 29 -19 54 -35
57 -35 3 0 26 -15 52 -34 86 -63 153 -97 203 -103 27 -3 51 -10 54 -14 7 -11
34 -12 34 -1 0 4 -21 25 -46 46 -34 29 -43 33 -34 17 6 -13 9 -25 6 -28 -7 -8
-80 22 -120 50 -186 126 -240 158 -301 176 -37 12 -81 21 -99 21 l-31 -1 31
-13z"/>
<path d="M450 2144 c2 -26 212 -165 228 -150 3 3 -4 9 -14 12 -30 11 -156 94
-186 122 -16 14 -28 22 -28 16z"/>
<path d="M2675 2035 c-90 -25 -136 -44 -239 -101 -55 -31 -118 -65 -138 -75
-20 -10 -40 -23 -43 -29 -15 -25 38 -5 154 58 115 63 201 100 303 132 41 13
60 30 31 29 -10 0 -40 -6 -68 -14z"/>
<path d="M2714 1978 c-32 -29 -68 -61 -78 -70 -29 -26 -169 -97 -255 -129 -94
-35 -81 -38 17 -4 111 39 227 105 295 168 20 19 37 33 37 30 0 -2 11 8 25 23
23 25 29 34 22 34 -2 0 -30 -24 -63 -52z"/>
<path d="M2200 1870 c-31 -16 -33 -19 -15 -26 11 -4 23 -9 27 -11 3 -2 16 10
28 27 25 35 13 37 -40 10z"/>
<path d="M1455 2016 c-74 -20 -230 -90 -241 -108 -11 -17 30 -6 103 28 43 20
94 41 113 46 206 53 221 58 149 57 -24 0 -80 -10 -124 -23z"/>
<path d="M1991 1458 c-24 -11 -73 -23 -110 -28 -58 -6 -61 -8 -20 -9 51 -1
134 21 164 43 26 20 20 19 -34 -6z"/>
<path d="M1286 1365 c-15 -19 -45 -44 -68 -56 -22 -11 -37 -23 -34 -26 12 -12
107 63 127 100 16 28 3 20 -25 -18z"/>
<path d="M1961 1341 c-173 -255 -536 -353 -823 -223 -36 16 -83 41 -104 56
-21 14 -46 26 -55 26 -26 0 -52 -35 -44 -60 l7 -21 18 21 c22 26 25 26 54 6
53 -34 159 -86 177 -86 10 0 19 -4 19 -10 0 -5 6 -7 13 -4 8 3 20 -3 28 -12
13 -15 12 -16 -11 -9 -36 12 -94 15 -84 5 16 -15 135 -41 218 -47 130 -9 295
27 411 89 82 44 174 123 211 180 15 24 29 35 38 32 35 -13 50 88 17 106 -35
18 -50 11 -90 -49z m79 -3 c0 -5 -7 -16 -15 -24 -8 -9 -15 -13 -15 -10 0 3
-16 -11 -35 -32 -83 -87 -98 -102 -102 -98 -3 2 18 28 46 57 28 29 51 59 51
66 0 7 4 13 8 13 5 0 14 11 20 25 11 24 42 26 42 3z m-188 -185 c-7 -3 -19
-11 -26 -19 -8 -8 -19 -14 -25 -14 -6 0 -11 -4 -11 -10 0 -5 -7 -10 -15 -10
-8 0 -15 -4 -15 -10 0 -5 -7 -10 -15 -10 -9 0 -28 -6 -44 -14 -17 -9 -32 -11
-42 -5 -15 9 -15 9 27 13 17 2 67 28 89 47 28 25 78 49 85 42 3 -3 -1 -8 -8
-10z m-232 -108 c-7 -9 -29 -15 -53 -15 -49 0 -45 8 7 14 21 3 41 7 44 10 12
13 14 5 2 -9z"/>
<path d="M150 1778 c54 -55 269 -147 383 -163 71 -10 57 1 -19 14 -36 7 -90
23 -121 36 -30 14 -62 25 -70 25 -13 0 -95 46 -173 97 l-25 17 25 -26z"/>
<path d="M174 1791 c4 -5 39 -15 79 -21 75 -12 259 -50 362 -75 69 -17 95 -18
95 -7 0 10 -308 87 -407 102 -88 12 -136 13 -129 1z"/>
<path d="M2245 1510 c-5 -8 29 -28 60 -35 11 -3 45 -12 75 -20 59 -16 185 -20
194 -6 7 11 -43 21 -108 21 -29 0 -89 11 -134 24 -45 13 -84 20 -87 16z"/>
<path d="M2545 1505 c11 -8 27 -20 35 -27 8 -7 18 -12 23 -10 14 4 89 -25 162
-63 l70 -38 -28 30 c-33 35 -117 78 -202 105 -72 21 -87 22 -60 3z"/>
<path d="M2240 1455 c0 -8 145 -75 162 -75 7 1 -12 11 -42 24 -30 12 -70 30
-87 40 -18 9 -33 14 -33 11z"/>
<path d="M2490 1355 c30 -8 64 -14 75 -14 11 1 -5 7 -35 14 -30 8 -64 14 -75
14 -11 -1 5 -7 35 -14z"/>
<path d="M2612 1329 c32 -10 210 -10 224 -1 7 4 -47 7 -118 7 -71 0 -119 -3
-106 -6z"/>
<path d="M454 1375 c-104 -52 -224 -142 -224 -168 0 -6 12 1 28 15 43 41 166
116 258 159 46 21 84 41 84 44 0 15 -49 -1 -146 -50z"/>
<path d="M630 1324 c-29 -16 -36 -23 -20 -20 14 3 32 6 40 6 8 0 21 9 28 20
16 26 7 25 -48 -6z"/>
<path d="M303 1091 c-35 -9 -63 -19 -63 -22 0 -9 132 21 145 32 12 12 -6 10
-82 -10z"/>
<path d="M2460 985 c0 -7 42 -23 78 -30 15 -3 5 3 -23 15 -56 22 -55 22 -55
15z"/>
<path d="M773 1074 c-29 -20 -53 -41 -53 -45 0 -11 -3 -11 45 6 46 16 75 19
75 6 0 -4 -55 -63 -122 -131 -72 -72 -118 -125 -110 -127 7 -3 63 46 124 109
151 154 142 141 119 162 -11 10 -21 27 -23 37 -3 18 -8 16 -55 -17z"/>
<path d="M875 970 c-8 -16 -29 -46 -46 -65 -17 -19 -27 -35 -22 -35 6 0 17 8
25 18 21 23 71 112 64 112 -3 0 -12 -13 -21 -30z"/>
<path d="M593 888 c-29 -34 -108 -148 -127 -186 -32 -62 -9 -58 30 5 21 34 46
65 54 68 17 5 85 135 72 135 -5 0 -18 -10 -29 -22z"/>
<path d="M740 808 c-25 -27 -87 -81 -137 -120 -92 -69 -119 -94 -65 -60 88 55
286 234 256 231 -5 0 -29 -23 -54 -51z"/>
<path d="M2032 995 c-21 -27 -19 -65 3 -65 7 0 38 -30 68 -67 67 -82 176 -188
184 -180 8 8 -23 45 -143 174 -133 143 -135 164 -9 98 89 -47 135 -68 135 -61
0 15 -190 126 -215 126 -2 0 -12 -11 -23 -25z"/>
<path d="M2050 840 c73 -105 260 -280 360 -335 26 -14 7 1 -60 51 -65 48 -223
201 -293 284 l-38 45 31 -45z"/>
<path d="M2250 848 c0 -14 63 -133 73 -137 17 -6 64 -58 83 -90 17 -29 34 -41
34 -23 0 12 -52 97 -85 138 -43 55 -104 120 -105 112z"/>
<path d="M1039 848 c-22 -23 -45 -51 -50 -62 -8 -16 -5 -15 13 5 52 58 128 99
128 69 0 -16 -53 -114 -119 -220 -33 -52 -57 -97 -55 -99 10 -10 55 46 105
134 30 53 61 95 69 95 11 0 16 14 17 50 2 40 -1 51 -16 60 -33 17 -50 12 -92
-32z"/>
<path d="M949 728 c-40 -54 -55 -81 -72 -132 -21 -62 -22 -93 -1 -46 15 33 16
34 29 16 17 -23 19 -18 34 68 6 32 18 72 26 89 21 41 14 43 -16 5z"/>
<path d="M1105 642 c-43 -82 -99 -162 -150 -213 -50 -49 -63 -80 -14 -33 62
59 211 285 197 299 -2 2 -17 -22 -33 -53z"/>
<path d="M1703 838 c-16 -18 -19 -28 -12 -47 6 -14 8 -30 5 -37 -3 -7 1 -15 9
-17 7 -3 18 -23 25 -44 16 -50 82 -186 95 -195 22 -16 15 16 -20 89 -57 120
-86 203 -83 237 l3 31 57 -57 c63 -63 74 -91 84 -210 7 -83 23 -107 23 -35 0
83 -53 247 -79 247 -6 0 -10 8 -10 18 0 18 -37 42 -64 42 -7 0 -22 -10 -33
-22z"/>
<path d="M1710 603 c0 -18 40 -107 45 -101 3 3 -6 29 -20 59 -14 30 -25 49
-25 42z"/>
<path d="M1770 459 c0 -10 70 -159 75 -159 3 0 -1 15 -8 33 -19 43 -66 134
-67 126z"/>
<path d="M1375 810 c-4 -6 -11 -8 -16 -5 -5 4 -8 -4 -7 -17 1 -13 -9 -38 -22
-55 -18 -25 -26 -56 -36 -135 -17 -131 -17 -148 -4 -128 9 13 12 13 24 -2 20
-27 24 -22 15 25 -11 59 -11 145 1 189 11 39 66 119 88 126 22 7 14 -90 -18
-199 -29 -101 -39 -173 -22 -154 11 12 62 194 62 218 0 10 6 20 13 23 14 5 9
86 -6 112 -10 14 -63 16 -72 2z"/>
<path d="M1460 583 c-1 -5 -5 -27 -9 -51 -5 -24 -5 -40 -1 -35 10 10 24 93 16
93 -3 0 -6 -3 -6 -7z"/>
<path d="M1400 350 c-12 -45 -20 -83 -18 -86 3 -2 15 32 28 76 13 44 21 83 18
85 -2 3 -15 -31 -28 -75z"/>
</g>
</svg>
